<mxfile host="app.diagrams.net" modified="2023-11-24T22:48:31.711Z" agent="Mozilla/5.0 (X11; Ubuntu; Linux x86_64; rv:109.0) Gecko/20100101 Firefox/119.0" etag="U5ZjVZk5ShilU1kHqVrY" version="22.1.4" type="device">
  <diagram name="Page-1" id="K1gwb_pVcvt4lDyG2fEL">
    <mxGraphModel dx="683" dy="383" grid="1" gridSize="10" guides="1" tooltips="1" connect="1" arrows="1" fold="1" page="1" pageScale="1" pageWidth="850" pageHeight="1100" math="0" shadow="0">
      <root>
        <mxCell id="0" />
        <mxCell id="1" parent="0" />
        <mxCell id="PCNLmxc2tKjiJLuA5C2j-15" value="I2S?" style="edgeStyle=orthogonalEdgeStyle;rounded=0;orthogonalLoop=1;jettySize=auto;html=1;exitX=0.5;exitY=1;exitDx=0;exitDy=0;entryX=0.5;entryY=0;entryDx=0;entryDy=0;" edge="1" parent="1" source="PCNLmxc2tKjiJLuA5C2j-1" target="PCNLmxc2tKjiJLuA5C2j-6">
          <mxGeometry relative="1" as="geometry" />
        </mxCell>
        <mxCell id="PCNLmxc2tKjiJLuA5C2j-16" value="I2S" style="edgeStyle=orthogonalEdgeStyle;rounded=0;orthogonalLoop=1;jettySize=auto;html=1;exitX=1;exitY=0.5;exitDx=0;exitDy=0;entryX=0;entryY=0.5;entryDx=0;entryDy=0;" edge="1" parent="1" source="PCNLmxc2tKjiJLuA5C2j-1" target="PCNLmxc2tKjiJLuA5C2j-7">
          <mxGeometry relative="1" as="geometry" />
        </mxCell>
        <mxCell id="PCNLmxc2tKjiJLuA5C2j-1" value="EPS32 S3" style="rounded=0;whiteSpace=wrap;html=1;" vertex="1" parent="1">
          <mxGeometry x="360" y="320" width="120" height="60" as="geometry" />
        </mxCell>
        <mxCell id="PCNLmxc2tKjiJLuA5C2j-8" value="5V" style="edgeStyle=orthogonalEdgeStyle;rounded=0;orthogonalLoop=1;jettySize=auto;html=1;exitX=1;exitY=0.25;exitDx=0;exitDy=0;entryX=0;entryY=0.25;entryDx=0;entryDy=0;" edge="1" parent="1" source="PCNLmxc2tKjiJLuA5C2j-2" target="PCNLmxc2tKjiJLuA5C2j-4">
          <mxGeometry relative="1" as="geometry" />
        </mxCell>
        <mxCell id="PCNLmxc2tKjiJLuA5C2j-9" value="GND" style="edgeStyle=orthogonalEdgeStyle;rounded=0;orthogonalLoop=1;jettySize=auto;html=1;exitX=1;exitY=0.75;exitDx=0;exitDy=0;entryX=0;entryY=0.75;entryDx=0;entryDy=0;" edge="1" parent="1" source="PCNLmxc2tKjiJLuA5C2j-2" target="PCNLmxc2tKjiJLuA5C2j-4">
          <mxGeometry relative="1" as="geometry" />
        </mxCell>
        <mxCell id="PCNLmxc2tKjiJLuA5C2j-10" value="D-" style="edgeStyle=orthogonalEdgeStyle;rounded=0;orthogonalLoop=1;jettySize=auto;html=1;exitX=0.75;exitY=1;exitDx=0;exitDy=0;entryX=0.25;entryY=0;entryDx=0;entryDy=0;" edge="1" parent="1" source="PCNLmxc2tKjiJLuA5C2j-2" target="PCNLmxc2tKjiJLuA5C2j-1">
          <mxGeometry relative="1" as="geometry" />
        </mxCell>
        <mxCell id="PCNLmxc2tKjiJLuA5C2j-11" value="D+" style="edgeStyle=orthogonalEdgeStyle;rounded=0;orthogonalLoop=1;jettySize=auto;html=1;exitX=0.5;exitY=1;exitDx=0;exitDy=0;entryX=0;entryY=0.25;entryDx=0;entryDy=0;" edge="1" parent="1" source="PCNLmxc2tKjiJLuA5C2j-2" target="PCNLmxc2tKjiJLuA5C2j-1">
          <mxGeometry relative="1" as="geometry" />
        </mxCell>
        <mxCell id="PCNLmxc2tKjiJLuA5C2j-2" value="&lt;div&gt;USB-C&lt;/div&gt;" style="whiteSpace=wrap;html=1;rounded=0;" vertex="1" parent="1">
          <mxGeometry x="260" y="180" width="120" height="60" as="geometry" />
        </mxCell>
        <mxCell id="PCNLmxc2tKjiJLuA5C2j-12" value="3.3V" style="edgeStyle=orthogonalEdgeStyle;rounded=0;orthogonalLoop=1;jettySize=auto;html=1;exitX=0.25;exitY=1;exitDx=0;exitDy=0;entryX=0.5;entryY=0;entryDx=0;entryDy=0;" edge="1" parent="1" source="PCNLmxc2tKjiJLuA5C2j-4" target="PCNLmxc2tKjiJLuA5C2j-1">
          <mxGeometry relative="1" as="geometry" />
        </mxCell>
        <mxCell id="PCNLmxc2tKjiJLuA5C2j-13" value="GND" style="edgeStyle=orthogonalEdgeStyle;rounded=0;orthogonalLoop=1;jettySize=auto;html=1;exitX=0.5;exitY=1;exitDx=0;exitDy=0;entryX=0.75;entryY=0;entryDx=0;entryDy=0;" edge="1" parent="1" source="PCNLmxc2tKjiJLuA5C2j-4" target="PCNLmxc2tKjiJLuA5C2j-1">
          <mxGeometry relative="1" as="geometry">
            <Array as="points">
              <mxPoint x="540" y="300" />
              <mxPoint x="450" y="300" />
            </Array>
          </mxGeometry>
        </mxCell>
        <mxCell id="PCNLmxc2tKjiJLuA5C2j-4" value="&lt;div&gt;Voltage regulator&lt;/div&gt;&lt;div&gt;5V -&amp;gt; 3.3V&lt;/div&gt;&lt;div&gt;AMS1117&lt;/div&gt;" style="whiteSpace=wrap;html=1;rounded=0;" vertex="1" parent="1">
          <mxGeometry x="480" y="180" width="120" height="60" as="geometry" />
        </mxCell>
        <mxCell id="PCNLmxc2tKjiJLuA5C2j-14" value="&lt;div&gt;EN pin&lt;/div&gt;" style="edgeStyle=orthogonalEdgeStyle;rounded=0;orthogonalLoop=1;jettySize=auto;html=1;exitX=1;exitY=0.25;exitDx=0;exitDy=0;entryX=0;entryY=0.5;entryDx=0;entryDy=0;" edge="1" parent="1" source="PCNLmxc2tKjiJLuA5C2j-5" target="PCNLmxc2tKjiJLuA5C2j-1">
          <mxGeometry relative="1" as="geometry" />
        </mxCell>
        <mxCell id="PCNLmxc2tKjiJLuA5C2j-5" value="&lt;div&gt;EN pin delay&lt;/div&gt;" style="rounded=0;whiteSpace=wrap;html=1;" vertex="1" parent="1">
          <mxGeometry x="150" y="340" width="120" height="60" as="geometry" />
        </mxCell>
        <mxCell id="PCNLmxc2tKjiJLuA5C2j-6" value="max9838x" style="rounded=0;whiteSpace=wrap;html=1;" vertex="1" parent="1">
          <mxGeometry x="360" y="440" width="120" height="60" as="geometry" />
        </mxCell>
        <mxCell id="PCNLmxc2tKjiJLuA5C2j-7" value="&lt;div&gt;MEMS mic&lt;/div&gt;&lt;div&gt;SPH0645LM4H&lt;br&gt;&lt;/div&gt;" style="rounded=0;whiteSpace=wrap;html=1;" vertex="1" parent="1">
          <mxGeometry x="600" y="320" width="120" height="60" as="geometry" />
        </mxCell>
        <mxCell id="PCNLmxc2tKjiJLuA5C2j-17" value="&amp;nbsp;" style="text;whiteSpace=wrap;html=1;" vertex="1" parent="1">
          <mxGeometry x="240" y="70" width="40" height="40" as="geometry" />
        </mxCell>
        <mxCell id="PCNLmxc2tKjiJLuA5C2j-18" value="&amp;nbsp;" style="text;whiteSpace=wrap;html=1;" vertex="1" parent="1">
          <mxGeometry x="210" y="320" width="40" height="40" as="geometry" />
        </mxCell>
        <mxCell id="PCNLmxc2tKjiJLuA5C2j-19" value="&amp;nbsp;" style="text;whiteSpace=wrap;html=1;" vertex="1" parent="1">
          <mxGeometry x="480" y="390" width="40" height="40" as="geometry" />
        </mxCell>
      </root>
    </mxGraphModel>
  </diagram>
</mxfile>
